:FULLY-SPECIFIED
:FORCE-ALL-JOINTS-BE-3DOF
:DEGREES
883
root 3.85195 16.5305 30.5312 -10.8246 23.6768 359.35
lfemur -15.8095 19.9983 -19.0116
ltibia 40.4913 0 0
lfoot -12.9326 0.0690648 0
ltoes -1.37978 0 0
rfemur -80.7132 -24.4467 36.5168
rtibia 101.126 0 0
rfoot 19.264 26.205 0
rtoes -8.14353 0 0
lowerback 15.0059 -4.01209 -6.64789
upperback 4.97444 -6.28636 -2.38034
thorax -2.64296 -3.11384 2.26165
lowerneck -7.71871 -3.24517 1.71638
upperneck 4.65939 -4.84264 4.94114
head 2.93726 -2.18998 1.06474
lclavicle -3.12092e-14 -4.77083e-15 0
lhumerus -33.0312 -40.5423 88.3441
lradius 60.5977 0 0
lwrist 19.6497 0 0
lhand 25.8347 11.8689 0
lfingers 7.12502 0 0
lthumb 49.9264 33.1302 0
rclavicle -3.12092e-14 -4.77083e-15 0
rhumerus -49.2556 -29.6742 -46.9493
rradius 72.2992 0 0
rwrist -23.3678 0 0
rhand -47.7649 -54.4874 0
rfingers 7.12502 0 0
rthumb -20.4424 -803.431 0
884
root 3.83693 16.5213 30.6466 -10.4515 23.7298 -0.58874
lfemur -16.1454 20.4387 -18.926
ltibia 40.8837 -0 0
lfoot -13.1782 0.629656 0.0462072
ltoes -1.61429 0 0
rfemur -79.7683 -25.0274 36.2255
rtibia 101.337 -0 0
rfoot 19.1263 25.4814 0.117507
rtoes -7.00219 0 0
lowerback 14.7474 -4.02187 -6.60543
upperback 4.86868 -6.27669 -2.40679
thorax -2.61411 -3.10952 2.20065
lowerneck -7.73044 -3.3348 1.60497
upperneck 4.57327 -4.94945 4.98405
head 2.91865 -2.24599 1.09303
lclavicle -3.12092e-14 -4.77083e-15 0
lhumerus -33.5145 -40.9657 89.1412
lradius 60.7173 -0 0
lwrist 19.4027 0 0
lhand 26.3674 12.1741 -0.0245274
lfingers 7.12502 -0 0
lthumb 50.4231 33.2457 -0.00375942
rclavicle -3.12092e-14 -4.77083e-15 0
rhumerus -48.5675 -29.2822 -48.4059
rradius 73.9022 -0 0
rwrist -23.5478 0 0
rhand -47.0117 -53.8201 0.549178
rfingers 7.12502 -0 0
rthumb -19.7377 -82.6628 0.573459
885
root 3.82878 16.5144 30.7473 -10.0263 23.752 -0.518337
lfemur -16.5341 20.8753 -18.8228
ltibia 41.3189 -0 0
lfoot -13.4186 1.11904 0.0902576
ltoes -1.71857 0 0
rfemur -78.381 -25.5951 35.5636
rtibia 101.293 -0 0
rfoot 18.8756 24.3968 0.275664
rtoes -5.55956 0 0
lowerback 14.414 -4.01445 -6.53615
upperback 4.73277 -6.23621 -2.42917
thorax -2.57886 -3.08993 2.12192
lowerneck -7.7349 -3.4456 1.47319
upperneck 4.49325 -5.08231 5.02367
head 2.90229 -2.31536 1.12254
lclavicle -3.12092e-14 -4.77083e-15 0
lhumerus -34.1344 -41.3353 90.0696
lradius 60.8253 -0 0
lwrist 19.1232 0 0
lhand 26.8823 12.493 -0.0480572
lfingers 7.12502 -0 0
lthumb 50.9024 33.3752 -0.00746668
rclavicle -3.12092e-14 -4.77083e-15 0
rhumerus -47.7462 -28.5517 -50.2169
rradius 75.7186 -0 0
rwrist -23.5875 0 0
rhand -45.8226 -52.8092 1.25544
rfingers 7.12502 -0 0
rthumb -18.6141 -81.5335 1.30503
886
root 3.82646 16.5096 30.8347 -9.55557 23.745 -0.440235
lfemur -16.9694 21.3056 -18.7043
ltibia 41.7909 -0 0
lfoot -13.6524 1.53832 0.131606
ltoes -1.70043 0 0
rfemur -76.5819 -26.128 34.5506
rtibia 101.013 -0 0
rfoot 18.5184 22.9823 0.465176
rtoes -3.84601 0 0
lowerback 14.0133 -3.99065 -6.44248
upperback 4.56969 -6.16724 -2.44771
thorax -2.53794 -3.05619 2.02721
lowerneck -7.73239 -3.57534 1.32333
upperneck 4.41952 -5.23855 5.05995
head 2.88813 -2.39672 1.15296
lclavicle -3.12092e-14 -4.77083e-15 0
lhumerus -34.8781 -41.6477 91.1149
lradius 60.9216 -0 0
lwrist 18.8151 0 0
lhand 27.3766 12.8225 -0.0706751
lfingers 7.12502 -0 0
lthumb 51.362 33.5168 -0.0112663
rclavicle -3.12092e-14 -4.77083e-15 0
rhumerus -46.8371 -27.4976 -52.3229
rradius 77.7209 -0 0
rwrist -23.4961 0 0
rhand -44.2241 -51.4717 2.08119
rfingers 7.12502 -0 0
rthumb -17.0955 -80.0623 2.15608
887
root 3.82894 16.5065 30.9103 -9.04616 23.7104 -0.35593
lfemur -17.4449 21.7268 -18.5732
ltibia 42.2938 -0 0
lfoot -13.8783 1.88865 0.169717
ltoes -1.56769 0 0
rfemur -74.4041 -26.5995 33.2092
rtibia 100.514 -0 0
rfoot 18.0615 21.2685 0.675585
rtoes -1.89188 0 0
lowerback 13.5525 -3.95125 -6.32689
upperback 4.38242 -6.0721 -2.4627
thorax -2.49206 -3.00942 1.91829
lowerneck -7.72324 -3.72179 1.15765
upperneck 4.35222 -5.41549 5.09287
head 2.87615 -2.48868 1.18401
lclavicle -3.12092e-14 -4.77083e-15 0
lhumerus -35.7321 -41.8998 92.2617
lradius 61.0062 -0 0
lwrist 18.4828 0 0
lhand 27.8479 13.1592 -0.0923696
lfingers 7.12502 -0 0
lthumb 51.7993 33.6687 -0.0152484
rclavicle -3.12092e-14 -4.77083e-15 0
rhumerus -45.8868 -26.1367 -54.6644
rradius 79.8818 -0 0
rwrist -23.2822 0 0
rhand -42.2422 -49.8239 2.98433
rfingers 7.12502 -0 0
rthumb -15.2051 -78.2678 3.08349
888
root 3.83518 16.5047 30.9755 -8.50479 23.65 -0.266941
lfemur -17.9544 22.1363 -18.4316
ltibia 42.8215 -0 0
lfoot -14.095 2.17113 0.204076
ltoes -1.32812 0 0
rfemur -71.8843 -26.9809 31.5665
rtibia 99.8115 -0 0
rfoot 17.5117 19.2866 0.895756
rtoes 0.272461 -0 0
lowerback 13.0391 -3.89704 -6.19188
upperback 4.17397 -5.95312 -2.47439
thorax -2.44196 -2.95073 1.79692
lowerneck -7.70776 -3.88274 0.978419
upperneck 4.29154 -5.61045 5.12234
head 2.86629 -2.58985 1.21538
lclavicle -3.12092e-14 -4.77083e-15 0
lhumerus -36.6813 -42.0887 93.4932
lradius 61.0791 -0 0
lwrist 18.1305 0 0
lhand 28.2935 13.5001 -0.113036
lfingers 7.12502 -0 0
lthumb 52.2122 33.829 -0.0194504
rclavicle -3.12092e-14 -4.77083e-15 0
rhumerus -44.9406 -24.4887 -57.185
rradius 82.1741 -0 0
rwrist -22.955 0 0
rhand -39.9035 -47.883 3.91979
rfingers 7.12502 -0 0
rthumb -12.9672 -76.1694 4.04119
889
root 3.84414 16.5039 31.0319 -7.93821 23.5656 -0.174786
lfemur -18.4916 22.5315 -18.2817
ltibia 43.3679 -0 0
lfoot -14.3011 2.38691 0.234192
ltoes -0.989553 0 0
rfemur -69.0641 -27.2425 29.6546
rtibia 98.9235 -0 0
rfoot 16.8764 17.0674 1.11433
rtoes 2.61665 -0 0
lowerback 12.4807 -3.8288 -6.03996
upperback 3.94732 -5.81261 -2.48307
thorax -2.38837 -2.88125 1.66487
lowerneck -7.68628 -4.05594 0.787905
upperneck 4.23766 -5.82076 5.14831
head 2.85852 -2.69885 1.24678
lclavicle -3.12092e-14 -4.77083e-15 0
lhumerus -37.7097 -42.212 94.7918
lradius 61.1402 -0 0
lwrist 17.7623 0 0
lhand 28.7109 13.8418 -0.132482
lfingers 7.12502 -0 0
lthumb 52.5982 33.9958 -0.0238582
rclavicle -3.12092e-14 -4.77083e-15 0
rhumerus -44.0392 -22.5769 -59.8338
rradius 84.5705 -0 0
rwrist -22.5234 0 0
rhand -37.2365 -45.6689 4.84105
rfingers 7.12502 -0 0
rthumb -10.4084 -73.7891 4.98175
890
root 3.85477 16.5036 31.0808 -7.35316 23.459 -0.0809566
lfemur -19.0502 22.9094 -18.1254
ltibia 43.9273 -0 0
lfoot -14.4953 2.53711 0.259611
ltoes -0.559776 0 0
rfemur -65.9902 -27.3565 27.5113
rtibia 97.8667 -0 0
rfoot 16.164 14.6423 1.32019
rtoes 5.11033 -0 0
lowerback 11.8845 -3.74739 -5.87363
upperback 3.70547 -5.65287 -2.48899
thorax -2.33201 -2.8021 1.52389
lowerneck -7.65915 -4.23916 0.588374
upperneck 4.19078 -6.04374 5.17069
head 2.85282 -2.81429 1.27792
lclavicle -3.12092e-14 -4.77083e-15 0
lhumerus -38.8006 -42.2682 96.1388
lradius 61.1896 -0 0
lwrist 17.3824 0 0
lhand 29.0976 14.1813 -0.150435
lfingers 7.12502 -0 0
lthumb 52.955 34.1672 -0.0284091
rclavicle -3.12092e-14 -4.77083e-15 0
rhumerus -43.2179 -20.428 -62.566
rradius 87.0437 -0 0
rwrist -21.9962 0 0
rhand -34.273 -43.2052 5.70184
rfingers 7.12502 -0 0
rthumb -7.5587 -71.1526 5.85809
